{"title":"TROY 2004 Extended Cut BRRip 720P TRUE Digital AC3 5.1CH Hindi A","uid":6628693,"size":3922532210,"categoryP":"video","categoryS":"hd___movies","magnet":"?xt=urn:btih:c20038754e40645d65f90d5c693a02b342f64f5a&amp;dn=TROY+2004+Extended+Cut+BRRip+720P+TRUE+Digital+AC3+5.1CH+Hindi+A&amp;tr=udp%3A%2F%2Ftracker.openbittorrent.com%3A80&amp;tr=udp%3A%2F%2Fopen.demonii.com%3A1337&amp;tr=udp%3A%2F%2Ftracker.coppersurfer.tk%3A6969&amp;tr=udp%3A%2F%2Fexodus.desync.com%3A6969","seeders":1,"leechers":0,"uploader":"nsh168810","files":15,"time":1314264544,"description":"General\nComplete name                    : TROY 2004 Extended Cut BRRip 720P TRUE Digital AC3 5.1CH Hindi Audio\nFormat                           : Matroska\nFile size                        : 3.63 GiB\nDuration                         : 2h 57mn\nOverall bit rate                 : 2 929 Kbps\n\nVideo\nID                               : 1\nFormat                           : MPEG-4 Visual\nFormat profile                   : Advanced Simple@L5\nFormat settings, BVOP            : Yes\nFormat settings, QPel            : Yes\nFormat settings, GMC             : No warppoints\nFormat settings, Matrix          : Default (MPEG)\nCodec ID                         : XVID\nCodec ID/Hint                    : XviD\nDuration                         : 2h 57mn\nBit rate                         : 2 422 Kbps\nWidth                            : 1 280 pixels\nHeight                           : 528 pixels\nDisplay aspect ratio             : 2.40:1\nFrame rate                       : 23.976 fps\nColor space                      : YUV\nChroma subsampling               : 4:2:0\nBit depth                        : 8 bits\nScan type                        : Progressive\nCompression mode                 : Lossy\nBits/(Pixel*Frame)               : 0.149\nStream size                      : 3.00 GiB (83%)\n\nAudio\nID                               : 2\nFormat                           : AC-3\nFormat/Info                      : Audio Coding 3\nMode extension                   : CM (complete main)\nMuxing mode                      : Header stripping\nCodec ID                         : A_AC3\nDuration                         : 2h 57mn\nBit rate mode                    : Constant\nBit rate                         : 448 Kbps\nChannel(s)                       : 6 channels\nChannel positions                : Front: L C R, Side: L R, LFE\nSampling rate                    : 48.0 KHz\nBit depth                        : 16 bits\nCompression mode                 : Lossy\nDelay relative to video          : 150ms\nStream size                      : 569 MiB (15%)\nTitle                            : Digital 5.1CH\nLanguage                         : Hindi\n\n\nScreenshots :\n &lt;a href=&quot;\nhttp://img94.imageshack.us/img94/379/troy2004extendedverbrri.jpg&quot; rel=&quot;nofollow&quot; target=&quot;_NEW&quot;&gt;\nhttp://img94.imageshack.us/img94/379/troy2004extendedverbrri.jpg&lt;/a&gt; &lt;a href=&quot;\nhttp://img819.imageshack.us/img819/379/troy2004extendedverbrri.jpg&quot; rel=&quot;nofollow&quot; target=&quot;_NEW&quot;&gt;\nhttp://img819.imageshack.us/img819/379/troy2004extendedverbrri.jpg&lt;/a&gt; &lt;a href=&quot;\nhttp://img30.imageshack.us/img30/379/troy2004extendedverbrri.jpg&quot; rel=&quot;nofollow&quot; target=&quot;_NEW&quot;&gt;\nhttp://img30.imageshack.us/img30/379/troy2004extendedverbrri.jpg&lt;/a&gt; &lt;a href=&quot;\nhttp://img6.imageshack.us/img6/379/troy2004extendedverbrri.jpg&quot; rel=&quot;nofollow&quot; target=&quot;_NEW&quot;&gt;\nhttp://img6.imageshack.us/img6/379/troy2004extendedverbrri.jpg&lt;/a&gt; &lt;a href=&quot;\nhttp://img195.imageshack.us/img195/379/troy2004extendedverbrri.jpg&quot; rel=&quot;nofollow&quot; target=&quot;_NEW&quot;&gt;\nhttp://img195.imageshack.us/img195/379/troy2004extendedverbrri.jpg&lt;/a&gt; &lt;a href=&quot;\nhttp://img233.imageshack.us/img233/379/troy2004extendedverbrri.jpg&quot; rel=&quot;nofollow&quot; target=&quot;_NEW&quot;&gt;\nhttp://img233.imageshack.us/img233/379/troy2004extendedverbrri.jpg&lt;/a&gt; &lt;a href=&quot;\nhttp://img812.imageshack.us/img812/379/troy2004extendedverbrri.jpg&quot; rel=&quot;nofollow&quot; target=&quot;_NEW&quot;&gt;\nhttp://img812.imageshack.us/img812/379/troy2004extendedverbrri.jpg&lt;/a&gt; &lt;a href=&quot;\nhttp://img190.imageshack.us/img190/379/troy2004extendedverbrri.jpg&quot; rel=&quot;nofollow&quot; target=&quot;_NEW&quot;&gt;\nhttp://img190.imageshack.us/img190/379/troy2004extendedverbrri.jpg&lt;/a&gt; &lt;a href=&quot;\nhttp://img24.imageshack.us/img24/379/troy2004extendedverbrri.jpg&quot; rel=&quot;nofollow&quot; target=&quot;_NEW&quot;&gt;\nhttp://img24.imageshack.us/img24/379/troy2004extendedverbrri.jpg&lt;/a&gt; &lt;a href=&quot;\nhttp://img29.imageshack.us/img29/379/troy2004extendedverbrri.jpg&quot; rel=&quot;nofollow&quot; target=&quot;_NEW&quot;&gt;\nhttp://img29.imageshack.us/img29/379/troy2004extendedverbrri.jpg&lt;/a&gt; &lt;a href=&quot;\nhttp://img20.imageshack.us/img20/379/troy2004extendedverbrri.jpg&quot; rel=&quot;nofollow&quot; target=&quot;_NEW&quot;&gt;\nhttp://img20.imageshack.us/img20/379/troy2004extendedverbrri.jpg&lt;/a&gt;\n","torrent":{"xt":"urn:btih:c20038754e40645d65f90d5c693a02b342f64f5a","amp;dn":"TROY+2004+Extended+Cut+BRRip+720P+TRUE+Digital+AC3+5.1CH+Hindi+A","amp;tr":["udp%3A%2F%2Ftracker.openbittorrent.com%3A80","udp%3A%2F%2Fopen.demonii.com%3A1337","udp%3A%2F%2Ftracker.coppersurfer.tk%3A6969","udp%3A%2F%2Fexodus.desync.com%3A6969"],"infoHash":"c20038754e40645d65f90d5c693a02b342f64f5a","infoHashBuffer":{"type":"Buffer","data":[194,0,56,117,78,64,100,93,101,249,13,92,105,58,2,179,66,246,79,90]},"announce":[],"urlList":[]}}